Format                           : MPEG-4
Format profile                   : Base Media / Version 2
Codec ID                         : mp42
File size                        : 465 MiB
Duration                         : 1h 30mn
Overall bit rate                 : 721 Kbps
Encoded date                     : UTC 2013-03-03 22:21:21
Tagged date                      : UTC 2013-03-03 22:21:21

Video
ID                               : 1
Format                           : AVC
Format/Info                      : Advanced Video Codec
Format profile                   : Main@L3.1
Format settings, CABAC           : Yes
Format settings, ReFrames        : 3 frames
Codec ID                         : avc1
Codec ID/Info                    : Advanced Video Coding
Duration                         : 1h 30mn
Bit rate mode                    : Variable
Bit rate                         : 593 Kbps
Width                            : 800 pixels
Height                           : 600 pixels
Display aspect ratio             : 4:3
Frame rate mode                  : Variable
Frame rate                       : 24.000 fps
Minimum frame rate               : 24.000 fps
Maximum frame rate               : 24.024 fps
Resolution                       : 8 bits
Colorimetry                      : 4:2:0
Scan type                        : Progressive
Bits/(Pixel*Frame)               : 0.051
Stream size                      : 382 MiB (82%)
Language                         : English
Encoded date                     : UTC 2013-03-03 22:21:21
Tagged date                      : UTC 2013-03-03 22:21:21

Audio
ID                               : 2
Format                           : AAC
Format/Info                      : Advanced Audio Codec
Format version                   : Version 4
Format profile                   : LC
Format settings, SBR             : No
Codec ID                         : 40
Duration                         : 1h 30mn
Bit rate mode                    : Variable
Bit rate                         : 126 Kbps
Maximum bit rate                 : 526 Kbps
Channel(s)                       : 2 channels
Channel positions                : Front: L R
Sampling rate                    : 44.1 KHz
Stream size                      : 81.0 MiB (17%)
Language                         : English